<svg xmlns="http://www.w3.org/2000/svg" width="1000" height="1000" viewBox="0 0 1000 1000" version="1.1"><path d="M 509.571 58.250 C 508.174 59.487, 505.405 63.650, 503.418 67.500 C 464.921 142.080, 440.531 190.241, 397.322 277 C 335.280 401.574, 304.440 464.038, 284.507 505.500 C 281.070 512.650, 274.429 526.375, 269.751 536 C 265.072 545.625, 258.988 558.225, 256.231 564 C 253.474 569.775, 248.244 580.727, 244.609 588.337 C 230.814 617.219, 229.515 616.851, 351.750 618.668 C 376.087 619.030, 396 619.508, 396 619.730 C 396 619.952, 394.943 621.566, 393.651 623.317 C 390.502 627.584, 383.524 637.776, 358.954 674 C 297.393 764.758, 297.784 762.596, 342.500 764.906 C 374.779 766.574, 432.758 767.964, 470.875 767.983 L 504.250 768 503.625 771.125 C 503.281 772.844, 503 790.555, 503 810.484 L 503 846.719 486.250 846.911 C 452.403 847.299, 446 848.924, 446 857.122 C 446 866.163, 457.484 869, 494.080 869 L 504 869 504 877.622 C 504 918.961, 507.996 932.585, 519.179 929.378 C 526.471 927.286, 527.301 923.518, 528.678 886.250 L 529.315 869 537.407 868.990 C 579.451 868.940, 592.252 864.681, 585.920 852.850 C 583.648 848.605, 578.916 847.766, 554.221 847.225 C 541.418 846.945, 530.758 846.418, 530.534 846.055 C 530.309 845.691, 530.036 828.093, 529.927 806.947 L 529.729 768.500 580.615 767.873 C 667.330 766.804, 712.721 764.825, 718.240 761.872 C 728.869 756.184, 715.771 732.664, 647.693 635.190 C 641.812 626.770, 637 619.756, 637 619.603 C 637 619.451, 656.688 619.028, 680.750 618.663 C 808.729 616.725, 803.233 618.952, 783.108 577.182 C 776.567 563.607, 769.415 548.675, 767.215 544 C 765.015 539.325, 756.641 522.058, 748.607 505.628 C 740.573 489.199, 734 475.644, 734 475.505 C 734 474.266, 598.592 202.270, 575.439 157 C 566.859 140.225, 555.614 118.175, 550.449 108 C 524.021 55.931, 524.066 56, 516.500 56 C 513.368 56, 511.384 56.644, 509.571 58.250 M 500.588 116.250 C 469.984 181.241, 318.394 486.524, 277.510 565.500 C 269.537 580.900, 262.756 594.288, 262.440 595.250 C 261.896 596.906, 265.884 597, 336.850 597 L 411.835 597 424.092 579.250 C 436.471 561.322, 468.591 515.727, 475.341 506.500 C 477.352 503.750, 485.268 492.858, 492.930 482.295 L 506.861 463.089 505.856 396.295 C 505.303 359.558, 504.997 279.437, 505.175 218.250 C 505.354 157.062, 505.375 107, 505.222 107 C 505.069 107, 502.983 111.162, 500.588 116.250 M 527.815 221.750 C 527.988 284.862, 527.703 364.995, 527.183 399.823 L 526.236 463.146 543.457 486.823 C 560.503 510.259, 583.903 543.123, 595.500 559.913 C 598.800 564.691, 605.946 574.990, 611.379 582.800 L 621.259 597 696.672 597 L 772.085 597 767.922 589.250 C 750.701 557.191, 613.945 284.449, 581.522 217.500 C 577.793 209.800, 566.527 186.625, 556.486 166 C 546.445 145.375, 535.946 123.662, 533.156 117.750 C 530.365 111.838, 527.951 107, 527.791 107 C 527.631 107, 527.642 158.637, 527.815 221.750 M 514.650 484.469 C 514.091 485.927, 482.457 533.634, 472.524 548 C 469.672 552.125, 464.262 560, 460.502 565.500 C 456.742 571, 450.361 580.308, 446.321 586.184 C 442.281 592.060, 439.319 597.072, 439.738 597.322 C 442.256 598.824, 590.661 598.808, 593.264 597.305 C 593.685 597.063, 590.699 592.057, 586.629 586.182 C 569.760 561.830, 558.962 545.835, 538.781 515.300 C 518.306 484.319, 515.892 481.234, 514.650 484.469 M 515.612 620 L 422.724 620.500 412.283 635.500 C 406.540 643.750, 400.865 651.921, 399.671 653.659 C 389.188 668.913, 357.753 712.975, 340.839 736.122 C 338.178 739.765, 336 743.140, 336 743.622 C 336.001 744.110, 354.346 744.556, 377.250 744.627 C 399.938 744.696, 436.050 745.371, 457.500 746.127 C 505.796 747.827, 526.200 747.833, 574.500 746.157 C 595.400 745.432, 631.512 744.763, 654.750 744.670 C 677.987 744.576, 697 744.113, 697 743.641 C 697 743.168, 691.225 734.843, 684.167 725.141 C 666.767 701.222, 626.547 644.193, 615.278 627.460 C 613.041 624.138, 610.600 620.988, 609.855 620.460 C 609.001 619.855, 574.173 619.685, 515.612 620" stroke="none" fill="#f2f0f0" fill-rule="evenodd"/></svg>